# xmcd
#
# Track frame offsets: 
#        150
#        12285
#        23017
#        37252
#        46962
#        60002
#        70305
#        79660
#        89230
#        100220
#
# Disc length: 1580 seconds
#
# Revision: 3
# Processed by: cddbd v1.5.2PL0 Copyright (c) Steve Scherf et al.
# Submitted via: ExactAudioCopyFreeDBPlugin 1.0
#
DISCID=7a062a0a
DTITLE=The Blackwood Brothers - The Gospel Classics Series
DYEAR=1998
DGENRE=Gospel
TTITLE0=Oh Happy Day
TTITLE1=Jesus, Hold My Hand
TTITLE2=The Eastern Gate
TTITLE3=I Can Feel The Touch Of His Hand
TTITLE4=Precious Memories
TTITLE5=The Lord's Prayer
TTITLE6=Just A Closer Walk With Thee
TTITLE7=The Old Rugged Cross Made The Difference
TTITLE8=Sheltered In The Arms Of God
TTITLE9=Amazing Grace
EXTD=1998 RCA Records 67624-2
EXTT0=
EXTT1=
EXTT2=
EXTT3=
EXTT4=
EXTT5=
EXTT6=
EXTT7=
EXTT8=
EXTT9=
PLAYORDER=
